# AST/ASF file generated using VICON BodyLanguage
# -----------------------------------------------
:version 1.10
:name VICON
:units
  mass 1.0
  length 0.45
  angle deg
:documentation
   .ast/.asf automatically generated from VICON data using
   VICON BodyBuilder and BodyLanguage model FoxedUp or BRILLIANT.MOD
:root
   order TX TY TZ RX RY RZ
   axis XYZ
   position 0 0 0  
   orientation 0 0 0 
:bonedata
  begin
     id 1 
     name lhipjoint
     direction 0.570549 -0.739093 0.358072 
     length 2.41801 
     axis 0 0 0  XYZ
  end
  begin
     id 2 
     name lfemur
     direction 0.34202 -0.939693 0  
     length 7.44434  
     axis 0 0 20  XYZ
    dof rx ry rz
    limits (-160.0 20.0)
           (-70.0 70.0)
           (-60.0 70.0)
  end
  begin
     id 3 
     name ltibia
     direction 0.34202 -0.939693 0   
     length 7.60047   
     axis 0 0 20   XYZ
    dof rx
    limits (-10.0 170.0)
  end
  begin
     id 4 
     name lfoot
     direction 0.0909041 -0.249757 0.964032   
     length 2.03437   
     axis -90 7.62852e-016 20   XYZ
    dof rx rz
    limits (-45.0 90.0)
           (-70.0 20.0)
  end
  begin
     id 5 
     name ltoes
     direction 1.53547e-011 -4.2174e-011 1   
     length 1.02054   
     axis -90 7.62852e-016 20   XYZ
    dof rx
    limits (-90.0 20.0)
  end
  begin
     id 6 
     name rhipjoint
     direction -0.558096 -0.746754 0.361784   
     length 2.3932  
     axis 0 0 0  XYZ 
  end
  begin
     id 7 
     name rfemur
     direction -0.34202 -0.939693 0   
     length 7.3886   
     axis 0 0 -20   XYZ
    dof rx ry rz
    limits (-160.0 20.0)
           (-70.0 70.0)
           (-70.0 60.0)
  end
  begin
     id 8 
     name rtibia
     direction -0.34202 -0.939693 0   
     length 7.4839   
     axis 0 0 -20   XYZ
    dof rx
    limits (-10.0 170.0)
 end
 begin
     id 9 
     name rfoot
     direction -0.114619 -0.314914 0.942174   
     length 2.25127  
     axis -90 -7.62852e-016 -20   XYZ
    dof rx rz
    limits (-45.0 90.0)
           (-20.0 70.0)
  end
  begin
     id 10 
     name rtoes
     direction -1.53518e-011 -4.21881e-011 1   
     length 1.11821   
     axis -90 -7.62852e-016 -20   XYZ
    dof rx
    limits (-90.0 20.0)
  end
  begin
     id 11 
     name lowerback
     direction -0.00902269 0.996426 -0.0839821   
     length 2.25052   
     axis 0 0 0   XYZ
    dof rx ry rz
    limits (-20.0 45.0)
           (-30.0 30.0)
           (-30.0 30.0)
  end
  begin
     id 12 
     name upperback
     direction 0.0370973 0.999169 -0.0168941   
     length 2.24876   
     axis 0 0 0   XYZ
    dof rx ry rz
    limits (-20.0 45.0)
           (-30.0 30.0)
           (-30.0 30.0)
  end
  begin
     id 13 
     name thorax
     direction 0.0402726 0.998931 0.0227027   
     length 2.26408   
     axis 0 0 0   XYZ
    dof rx ry rz
    limits (-20.0 45.0)
           (-30.0 30.0)
           (-30.0 30.0)
  end
  begin
     id 14 
     name lowerneck
     direction -0.0733697 0.98508 0.155675   
     length 1.58204   
     axis 0 0 0   XYZ
    dof rx ry rz
    limits (-20.0 45.0)
           (-30.0 30.0)
           (-30.0 30.0)
  end
  begin
     id 15 
     name upperneck
     direction 0.0426554 0.993501 -0.105526   
     length 1.61222   
     axis 0 0 0   XYZ
    dof rx ry rz
    limits (-20.0 45.0)
           (-30.0 30.0)
           (-30.0 30.0)
  end
  begin
     id 16
     name head
     direction 0.020792 0.998384 -0.0528868  
     length 1.61527  
     axis 0 0 0   XYZ
    dof rx ry rz
    limits (-20.0 45.0)
           (-30.0 30.0)
           (-30.0 30.0)
  end
  begin
     id 17 
     name lclavicle
     direction 0.967109 0.155462 -0.201325  
     length 3.59357  
     axis 0 0 0   XYZ
    dof ry rz
    limits (-20.0 10.0)
           (0.0 20.0)
  end
  begin
     id 18 
     name lhumerus
     direction 1 -4.48968e-011 2.38195e-027   
     length 5.38154   
     axis 180 -30 -90   XYZ
    dof rx ry rz
    limits (-60.0 90.0)
           (-90.0 90.0)
           (-90.0 90.0)
  end
  begin
     id 19
     name lradius
     direction 1 -4.48961e-011 4.85371e-027   
     length 3.33312   
     axis 180 -30 -90   XYZ
    dof rx
    limits (-10.0 170.0)
  end
  begin
     id 20
     name lwrist
     direction 1 -4.48961e-011 4.76515e-027   
     length 1.66656   
     axis -3.27502e-015 90 90   XYZ
    dof ry
    limits (-180.0 0.0)
 end
  begin
     id 21 
     name lhand
     direction 1 -4.48951e-011 9.53074e-027   
     length 0.710789   
     axis -6.08098e-015 90 90   XYZ
    dof rx rz
    limits (-90.0 90.0)
           (-45.0 45.0)
  end
  begin
     id 22 
     name lfingers
     direction 1 -4.48953e-011 1.90613e-026   
     length 0.573057   
     axis -1.21619e-014 90 90   XYZ
    dof rx
    limits (0.0 90.0)
  end
  begin
     id 23
     name lthumb
     direction 0.707107 -6.34973e-011 0.707107   
     length 0.822798   
     axis -90 45 -9.86923e-015   XYZ
    dof rx rz
    limits (-45.0 45.0)
           (-45.0 45.0)
  end
  begin
     id 24 
     name rclavicle
     direction -0.9585 0.265289 -0.104398   
     length 3.42039  
     axis 0 0 0   XYZ 
    dof ry rz
    limits (-10.0 20.0)
           (-20.0 0.0)
  end
  begin
     id 25 
     name rhumerus
     direction -1 -4.48977e-011 2.21478e-027  
     length 5.16954   
     axis 180 30 90   XYZ
    dof rx ry rz
    limits (-90.0 60.0)
           (-90.0 90.0)
           (-90.0 90.0)
  end
  begin
     id 26 
     name rradius
     direction -1 -4.48967e-011 5.63677e-027   
     length 3.38287   
     axis 180 30 90   XYZ
    dof rx
    limits (-10.0 170.0)
  end
  begin
     id 27 
     name rwrist
     direction -1 -4.48967e-011 4.76501e-027   
     length 1.69144   
     axis -3.27502e-015 -90 -90   XYZ
    dof ry
    limits (-180.0 0.0)
  end
  begin
     id 28
     name rhand
     direction -1 -4.48902e-011 9.53292e-027   
     length 0.817967   
     axis -6.08098e-015 -90 -90   XYZ
    dof rx rz
    limits (-90.0 90.0)
           (-45.0 45.0)
  end
  begin
     id 29
     name rfingers
     direction -1 -4.49012e-011 1.90561e-026   
     length 0.659466   
     axis -1.21619e-014 -90 -90   XYZ
    dof rx
    limits (0.0 90.0)
  end
  begin
     id 30
     name rthumb
     direction -0.707107 -6.34944e-011 0.707107   
     length 0.946865   
     axis -90 -45 9.86923e-015   XYZ
    dof rx rz
    limits (-45.0 45.0)
           (-45.0 45.0)
  end
:hierarchy
  begin
    root lhipjoint rhipjoint lowerback
    lhipjoint lfemur
    lfemur ltibia
    ltibia lfoot
    lfoot ltoes
    rhipjoint rfemur
    rfemur rtibia
    rtibia rfoot
    rfoot rtoes
    lowerback upperback
    upperback thorax
    thorax lowerneck lclavicle rclavicle
    lowerneck upperneck
    upperneck head
    lclavicle lhumerus
    lhumerus lradius
    lradius lwrist
    lwrist lhand lthumb
    lhand lfingers
    rclavicle rhumerus
    rhumerus rradius
    rradius rwrist
    rwrist rhand rthumb
    rhand rfingers
  end

#!OML:ASF F:\twosubjects\two\wednesday\Session 1\Justin1.ASF
:FULLY-SPECIFIED
:DEGREES
632
root -4.55372 14.9804 -13.3034 -1077.15 13.3287 -367.255
lowerback 17.3358 1.45104 -4.38565
upperback 3.4788 1.31544 2.51235
thorax -6.13139 0.746099 4.89634
lowerneck -20.4689 2.89454 -5.14253
upperneck 3.72673 4.79379 3.89246
head 4.12587 2.54629 2.47084
rclavicle 2.26615e-014 3.02153e-014
rhumerus -37.8554 -29.487 -48.3475
rradius 29.122
rwrist -13.0871
rhand -19.9822 18.3436
rfingers 7.12502
rthumb 6.35698 -11.541
lclavicle 2.26615e-014 3.02153e-014
lhumerus -23.9999 -17.8552 28.0518
lradius 69.7979
lwrist 54.1043
lhand 15.4527 41.6063
lfingers 7.12502
lthumb 40.2776 66.748
rfemur -36.4047 -0.77608 13.1285
rtibia 63.7878
rfoot -29.9234 2.50018
rtoes -31.2482
lfemur -2.82845 -12.6163 -2.6591
ltibia 58.4793
lfoot -19.0749 -21.7462
ltoes -9.25255
633
root -4.68245 14.9666 -13.191 -1077.06 15.3733 -367.405
lowerback 17.1938 1.40187 -4.39762
upperback 3.53522 1.2515 2.41721
thorax -5.9844 0.710927 4.81464
lowerneck -20.6649 2.94219 -4.96697
upperneck 3.34628 4.81588 4.08746
head 4.0348 2.58126 2.50434
rclavicle -6.55989e-015 2.62396e-014
rhumerus -36.2948 -28.7039 -49.9386
rradius 28.3494
rwrist -11.842
rhand -19.2503 18.7988
rfingers 7.12502
rthumb 7.0635 -11.0634
lclavicle -6.55989e-015 2.62396e-014
lhumerus -23.2091 -17.3445 27.4725
lradius 67.4829
lwrist 54.7386
lhand 16.2868 44.3199
lfingers 7.12502
lthumb 41.0615 69.2167
rfemur -36.0273 -1.81116 13.8374
rtibia 64.4414
rfoot -30.7017 1.40036
rtoes -30.6918
lfemur -6.08535 -12.3715 -0.832737
ltibia 61.6953
lfoot -13.7322 -24.1626
ltoes -2.77182
634
root -4.8065 14.9467 -13.0863 -1077.09 17.5305 -368.031
lowerback 17.1488 1.29952 -3.99223
upperback 3.50597 1.20188 2.51928
thorax -5.9809 0.682953 4.7029
lowerneck -20.5713 3.06094 -4.75078
upperneck 2.69426 4.93466 4.06771
head 3.81731 2.65035 2.46043
rclavicle 2.08724e-014 1.90833e-014
rhumerus -34.6155 -27.4818 -51.53
rradius 27.5941
rwrist -11.7133
rhand -18.9947 19.087
rfingers 7.12502
rthumb 7.3103 -10.7667
lclavicle 2.08724e-014 1.90833e-014
lhumerus -22.0314 -16.4366 27.1218
lradius 64.3866
lwrist 54.6905
lhand 16.6748 44.1136
lfingers 7.12502
lthumb 41.4258 68.8931
rfemur -35.6876 -2.94815 15.1128
rtibia 64.9276
rfoot -31.4835 -0.481806
rtoes -31.8936
lfemur -9.43396 -11.9485 1.48612
ltibia 64.8905
lfoot -9.55254 -25.8303
ltoes -0.617367
635
root -4.91286 14.9436 -12.979 -1077.03 19.7376 -368.41
lowerback 17.0813 1.21647 -3.73897
upperback 3.59659 1.15021 2.5987
thorax -5.83878 0.651045 4.65415
lowerneck -21.5862 3.16863 -4.84055
upperneck 2.65681 5.13356 4.28688
head 3.93763 2.7739 2.58368
rclavicle -6.89783e-014 2.22639e-014
rhumerus -32.6704 -26.6171 -52.9316
rradius 27.0927
rwrist -11.403
rhand -18.2562 19.3254
rfingers 7.12502
rthumb 8.02306 -10.5023
lclavicle -6.89783e-014 2.22639e-014
lhumerus -20.2641 -14.7943 26.9967
lradius 60.7328
lwrist 53.4608
lhand 18.0791 45.5256
lfingers 7.12502
lthumb 42.7416 69.8622
rfemur -35.324 -4.2408 16.0542
rtibia 65.2282
rfoot -32.1527 -1.95815
rtoes -33.1994
lfemur -12.8332 -11.5775 3.28986
ltibia 68.0106
lfoot -5.90893 -26.5389
ltoes 3.10855
636
root -4.99743 14.9621 -12.8672 -1076.91 22.0925 -368.515
lowerback 17.0164 1.01599 -3.49609
upperback 3.70079 0.935066 2.57627
thorax -5.66488 0.538276 4.53698
lowerneck -22.4302 3.21375 -4.94211
upperneck 2.37972 5.27277 4.26484
head 3.96405 2.85365 2.62035
rclavicle -4.37326e-014 3.10104e-014
rhumerus -30.533 -26.2626 -54.0258
rradius 26.4037
rwrist -10.3617
rhand -17.0377 19.816
rfingers 7.12502
rthumb 9.19895 -9.96339
lclavicle -4.37326e-014 3.10104e-014
lhumerus -18.7247 -13.0023 26.7816
lradius 57.4367
lwrist 51.5178
lhand 16.5014 37.3464
lfingers 7.12502
lthumb 41.263 62.1786
rfemur -34.7447 -5.76271 16.6289
rtibia 65.2563
rfoot -32.8252 -2.54939
rtoes -32.8554
lfemur -16.3142 -11.0549 4.55416
ltibia 70.9679
lfoot -2.71563 -26.4819
ltoes 8.79045
